HIERARCHY
ROOT Model_Hips
{
	OFFSET 0.000000 96.915077 0.000000
	CHANNELS 6 Xposition Yposition Zposition Xrotation Yrotation Zrotation
	JOINT Model_Spine
	{
		OFFSET 0.000000 11.137703 -1.289900
		CHANNELS 3 Xrotation Yrotation Zrotation
		JOINT Model_Spine1
		{
			OFFSET 0.000000 12.993942 -1.504922
			CHANNELS 3 Xrotation Yrotation Zrotation
			JOINT Model_Spine2
			{
				OFFSET 0.000000 14.850220 -1.719911
				CHANNELS 3 Xrotation Yrotation Zrotation
				JOINT Model_Neck
				{
					OFFSET 0.000000 16.706543 -1.934903
					CHANNELS 3 Xrotation Yrotation Zrotation
					JOINT Model_Head
					{
						OFFSET 0.000000 10.471298 2.002100
						CHANNELS 3 Xrotation Yrotation Zrotation
						JOINT Model_HeadTop_End
						{
							OFFSET 0.000000 20.842606 3.985100
							CHANNELS 3 Xrotation Yrotation Zrotation
							End Site
							{
								OFFSET 0.000000 21.220154 0.000000
							}
						}
					}
				}
				JOINT Model_LeftShoulder
				{
					OFFSET 7.008500 14.768600 -1.919946
					CHANNELS 3 Xrotation Yrotation Zrotation
					JOINT Model_LeftArm
					{
						OFFSET 14.126271 -3.718048 0.029937
						CHANNELS 3 Xrotation Yrotation Zrotation
						JOINT Model_LeftForeArm
						{
							OFFSET 28.282801 0.000000 0.000000
							CHANNELS 3 Xrotation Yrotation Zrotation
							JOINT Model_LeftHand
							{
								OFFSET 26.204689 0.000000 0.000000
								CHANNELS 3 Xrotation Yrotation Zrotation
								End Site
								{
									OFFSET 26.204704 0.000000 0.000000
								}
							}
						}
					}
				}
				JOINT Model_RightShoulder
				{
					OFFSET -7.008500 14.768555 -1.949840
					CHANNELS 3 Xrotation Yrotation Zrotation
					JOINT Model_RightArm
					{
						OFFSET -14.126281 -3.718018 -0.029932
						CHANNELS 3 Xrotation Yrotation Zrotation
						JOINT Model_RightForeArm
						{
							OFFSET -28.283798 0.000000 -0.000001
							CHANNELS 3 Xrotation Yrotation Zrotation
							JOINT Model_RightHand
							{
								OFFSET -26.204193 0.000000 -0.000001
								CHANNELS 3 Xrotation Yrotation Zrotation
								End Site
								{
									OFFSET -26.204208 0.000000 -0.000001
								}
							}
						}
					}
				}
			}
		}
	}
	JOINT Model_LeftUpLeg
	{
		OFFSET 8.327700 -6.193199 -0.402800
		CHANNELS 3 Xrotation Yrotation Zrotation
		JOINT Model_LeftLeg
		{
			OFFSET 0.735802 -42.108742 -0.610721
			CHANNELS 3 Xrotation Yrotation Zrotation
			JOINT Model_LeftFoot
			{
				OFFSET -0.735806 -36.833748 -0.172876
				CHANNELS 3 Xrotation Yrotation Zrotation
				JOINT Model_LeftToeBase
				{
					OFFSET -0.565857 -11.977769 16.297714
					CHANNELS 3 Xrotation Yrotation Zrotation
					JOINT Model_LeftToe_End
					{
						OFFSET -0.111712 -0.312793 7.857784
						CHANNELS 3 Xrotation Yrotation Zrotation
						End Site
						{
							OFFSET -0.111712 -0.312793 7.857784
						}
					}
				}
			}
		}
	}
	JOINT Model_RightUpLeg
	{
		OFFSET -8.327700 -6.193199 -0.516500
		CHANNELS 3 Xrotation Yrotation Zrotation
		JOINT Model_RightLeg
		{
			OFFSET -0.735785 -42.108738 -0.434061
			CHANNELS 3 Xrotation Yrotation Zrotation
			JOINT Model_RightFoot
			{
				OFFSET 0.735776 -36.833748 -0.021630
				CHANNELS 3 Xrotation Yrotation Zrotation
				JOINT Model_RightToeBase
				{
					OFFSET 0.565817 -11.977745 15.903093
					CHANNELS 3 Xrotation Yrotation Zrotation
					JOINT Model_RightToe_End
					{
						OFFSET 0.111702 -0.312791 7.811342
						CHANNELS 3 Xrotation Yrotation Zrotation
						End Site
						{
							OFFSET 0.111702 -0.312791 7.811342
						}
					}
				}
			}
		}
	}
}
MOTION
Frames: 15
Frame Time: 0.016667
0.181259 95.914482 0.730407 1.018414 -2.685143 1.542356 0.193252 -0.358670 -0.269582 0.384981 -0.692415 -0.496918 0.384981 -0.692419 -0.496918 -0.000368 0.152067 0.402849 -0.000369 0.152064 0.402849 -0.000000 -0.000000 0.000000 1.417837 -7.418180 -17.752338 0.623440 19.220096 -55.031756 11.687494 -24.821830 -10.776426 0.000000 0.000000 -0.000001 0.546326 14.779633 16.719600 -6.085851 -6.471273 50.650733 18.149167 31.939092 5.078764 0.000003 0.000000 0.000000 -10.006290 8.685084 -2.831373 20.729662 -7.926353 0.008165 -11.095533 -0.599411 4.523963 -4.894255 0.667437 -0.583834 -0.000000 0.000000 -0.000000 -24.872650 -6.013264 -6.611424 65.169383 1.013506 -0.780588 -3.588985 -0.477207 1.289453 -10.882778 1.758777 0.588141 0.000001 -0.000000 0.000001 
0.230475 96.003265 2.249274 0.853235 -1.261257 1.410595 0.200899 -0.449442 -0.170403 0.400594 -0.891120 -0.317702 0.400594 -0.891121 -0.317702 0.057513 0.125662 0.379932 0.057526 0.125662 0.379933 0.000000 -0.000000 -0.000000 1.448450 -7.790880 -17.266962 0.698034 18.313877 -55.539355 11.409980 -27.539468 -10.398556 -0.000000 0.000001 -0.000000 0.574368 14.638905 16.601470 -4.908360 -7.829155 50.972865 17.774533 32.468530 4.970111 -0.000001 -0.000000 0.000000 -9.306279 8.558410 -2.474028 21.418152 -9.546726 -0.333763 -11.412866 -0.569776 4.741173 -5.380362 0.561159 -0.500925 -0.000000 0.000000 0.000000 -26.889596 -5.704294 -5.889322 62.564847 1.384533 -0.703021 -5.388326 -0.593250 2.212650 -8.139575 0.656348 -0.747253 0.000001 0.000000 0.000000 
0.244879 96.044189 3.729209 0.805001 0.234051 1.248718 0.183633 -0.547420 -0.063834 0.366676 -1.104974 -0.125632 0.366673 -1.104975 -0.125631 0.086082 0.089516 0.380187 0.086083 0.089516 0.380186 0.000000 0.000000 -0.000000 1.482205 -8.086659 -16.813072 1.094063 17.517584 -55.846816 11.409244 -31.084423 -9.897860 -0.000000 -0.000000 -0.000000 0.592378 14.512327 16.537975 -3.730721 -9.080549 51.161132 17.699402 33.288242 4.701810 0.000002 -0.000001 0.000000 -8.987796 8.437521 -2.021362 22.529625 -11.123838 -0.692331 -11.938374 -0.636180 5.338726 -5.977064 0.431941 -0.402244 0.000000 0.000000 -0.000000 -28.725696 -5.055412 -4.998022 59.025300 1.981633 -0.903304 -6.683800 -0.712995 3.036263 -4.598876 -0.553647 -0.929208 -0.000003 0.000001 0.000000 
0.214403 96.024704 5.173127 0.797864 1.823722 1.079362 0.158049 -0.663721 0.041451 0.316429 -1.358005 0.066443 0.316426 -1.358005 0.066443 0.078454 0.045729 0.400552 0.078454 0.045730 0.400552 -0.000000 0.000000 -0.000000 1.514338 -8.266014 -16.442444 1.785943 16.880198 -55.925831 11.769833 -35.347004 -9.150108 -0.000000 -0.000001 0.000000 0.608939 14.376676 16.486507 -2.612962 -10.177164 51.268267 17.939019 34.222977 4.305544 0.000001 0.000002 -0.000001 -8.981958 8.304880 -1.463865 24.029584 -12.721748 -1.057169 -12.527772 -0.707221 5.986239 -6.647246 0.290251 -0.296861 0.000000 0.000000 -0.000000 -30.326115 -4.113563 -4.014565 54.742071 2.962849 -1.446478 -7.059335 -0.790320 3.605039 -3.388558 -1.023439 1.342579 -0.000001 0.000000 0.000000 
0.151664 95.915779 6.602034 0.735489 3.577412 0.937749 0.144420 -0.804206 0.139731 0.290344 -1.663354 0.242726 0.290346 -1.663353 0.242726 0.036025 -0.007457 0.431446 0.036025 -0.007457 0.431448 -0.000000 0.000000 -0.000000 1.541000 -8.346712 -16.168912 2.680145 16.405006 -55.826049 12.414058 -39.991577 -8.154648 -0.000000 0.000001 -0.000001 0.634137 14.193115 16.397329 -1.629596 -11.105023 51.358559 18.317046 35.015556 3.900452 -0.000001 0.000001 -0.000001 -9.266917 8.095130 -0.872379 26.124925 -14.341463 -1.367294 -13.239820 -0.814312 6.703161 -7.342395 0.196628 -0.234805 0.000000 0.000000 0.000000 -31.654802 -2.997204 -3.165036 50.165209 5.093764 -2.246805 -6.445244 -0.827383 4.122267 -4.530365 -0.581295 1.174068 -0.000000 -0.000000 0.000000 
0.064351 95.681389 8.047429 0.568123 5.589084 0.836418 0.150882 -0.971341 0.231231 0.304678 -2.027010 0.400587 0.304676 -2.027010 0.400587 -0.034356 0.047276 0.466173 -0.034359 0.047276 0.466172 0.000000 -0.000000 0.000000 1.562309 -8.389865 -15.960523 3.620061 16.038415 -55.662647 13.062851 -44.528800 -7.123705 -0.000000 0.000001 -0.000000 0.675402 13.930418 16.232424 -0.815607 -11.904699 51.467801 18.584516 35.515829 3.611115 0.000002 0.000000 0.000001 -9.773287 7.708968 -0.304593 28.861941 -16.008795 -1.539559 -14.151816 -0.958079 7.486501 -8.004720 0.208692 -0.260706 0.000000 -0.000000 0.000000 -32.772521 -1.846444 -2.680307 46.018840 9.407913 -3.096548 -5.124556 -0.867840 5.061602 -5.829869 0.257157 0.750140 0.000000 -0.000000 0.000000 
-0.050655 95.284042 9.540131 0.334792 7.953410 0.711324 0.164715 -1.169740 0.331993 0.334083 -2.458760 0.563268 0.334085 -2.458760 0.563268 -0.123500 0.293890 0.510545 -0.123495 0.293889 0.510544 -0.000000 -0.000000 -0.000000 1.581793 -8.455296 -15.761015 4.428031 15.679883 -55.557927 13.360314 -48.499158 -6.410970 -0.000003 -0.000004 0.000001 0.730066 13.605588 15.997083 -0.133984 -12.671251 51.568567 18.578251 35.607142 3.469447 0.000000 0.000001 0.000001 -10.548745 7.072803 0.276579 32.317105 -17.721348 -1.498302 -15.349016 -1.143432 8.326733 -8.575610 0.319646 -0.364603 0.000001 -0.000000 0.000000 -33.851930 -0.756992 -2.593781 43.099791 16.344675 -3.832684 -3.349153 -0.919334 6.752473 -6.559840 0.593477 0.620098 -0.000000 0.000003 0.000001 
-0.211411 94.706871 11.091437 0.148720 10.760750 0.419057 0.158980 -1.415140 0.465068 0.325200 -2.986220 0.774281 0.325201 -2.986218 0.774281 -0.222163 0.679743 0.586076 -0.222155 0.679740 0.586075 -0.000000 -0.000000 -0.000000 1.602981 -8.562331 -15.532270 4.967025 15.234221 -55.566423 13.115415 -51.641670 -6.253880 -0.000002 0.000000 0.000000 0.780724 13.322711 15.763885 0.468975 -13.487197 51.575090 18.245877 35.304257 3.457477 0.000002 -0.000001 0.000001 -11.704903 6.162735 1.023720 36.460540 -19.464820 -1.245910 -16.831000 -1.378714 9.215677 -9.537482 0.443108 0.503916 0.000000 -0.000000 -0.000000 -35.014869 0.225630 -2.654418 41.867557 24.768853 -4.500636 -1.106567 -0.908567 8.934943 -6.256180 -0.133322 1.098104 0.000000 -0.000002 -0.000001 
-0.436869 93.978645 12.667912 0.129526 14.091901 -0.183230 0.114471 -1.732055 0.642704 0.240635 -3.647401 1.065868 0.240635 -3.647401 1.065867 -0.326369 1.161129 0.724150 -0.326368 1.161129 0.724150 -0.000000 0.000000 0.000000 1.625958 -8.688363 -15.284461 5.183067 14.676506 -55.648372 12.473475 -53.932782 -6.550787 -0.000000 0.000002 0.000001 0.801671 13.250764 15.648293 0.989883 -14.350171 51.414662 17.596838 34.679080 3.602924 0.000002 -0.000000 0.000001 -13.301518 4.995999 2.079951 41.051865 -21.231023 -0.830387 -18.449451 -1.663884 10.118311 -10.443899 0.461692 1.613973 -0.000000 0.000000 -0.000000 -36.119963 1.033124 -2.549557 42.204186 31.992883 -5.244774 1.445027 -0.769711 10.946394 -4.999473 -1.282384 1.763072 0.000000 0.000006 0.000001 
-0.731775 93.159958 14.194423 0.323472 17.970747 -1.115996 0.040227 -2.124435 0.854148 0.099091 -4.440154 1.421220 0.099088 -4.440150 1.421220 -0.440744 1.712529 0.942986 -0.440731 1.712526 0.942989 -0.000000 -0.000000 -0.000000 1.647305 -8.801996 -15.057999 5.101828 14.066878 -55.723006 11.828954 -55.481330 -6.927888 -0.000001 -0.000003 0.000000 0.772764 13.517185 15.743675 1.363116 -15.169264 51.126609 16.682358 33.564226 3.969676 -0.000002 -0.000002 0.000001 -15.279101 3.611628 3.445886 45.714207 -23.020622 -0.349068 -19.976061 -1.985552 10.996685 -11.740288 0.347182 1.701533 0.000000 0.000000 -0.000000 -36.825808 1.512889 -2.279660 43.524339 35.679235 -5.970025 3.362219 -0.595987 12.286544 -5.647467 -1.754093 -0.653033 -0.000000 0.000002 0.000000 
-1.082549 92.318016 15.592046 0.670194 22.289209 -2.209142 -0.026910 -2.535601 1.064532 -0.026813 -5.250511 1.772991 -0.026813 -5.250516 1.772989 -0.577536 2.321188 1.219264 -0.577536 2.321184 1.219262 0.000000 0.000000 0.000000 1.664927 -8.904262 -14.869605 4.781779 13.491823 -55.772941 11.515986 -56.331644 -7.061458 0.000002 -0.000000 -0.000000 0.691012 14.083322 16.068196 1.505657 -15.807935 50.879083 15.582375 31.685507 4.598970 0.000002 -0.000001 0.000000 -17.439718 2.095291 4.925590 50.041473 -24.803653 0.070482 -21.213261 -2.316118 11.817419 -13.470094 0.183924 0.703788 0.000000 -0.000000 -0.000000 -36.875822 1.436243 -2.067592 45.756660 35.555301 -6.310871 1.852656 -0.823284 10.652412 -6.387693 -1.282188 -4.946832 -0.000001 -0.000001 0.000001 
-1.464914 91.520332 16.808569 1.053341 26.769885 -3.172632 -0.047744 -2.836417 1.233893 -0.061422 -5.828426 2.050990 -0.061422 -5.828426 2.050989 -0.751341 2.974220 1.482780 -0.751335 2.974213 1.482782 0.000000 0.000002 0.000001 1.681382 -9.038246 -14.683793 4.263436 12.985046 -55.916296 11.550587 -56.325865 -6.946274 0.000002 -0.000004 0.000000 0.574702 14.730037 16.557021 1.355458 -16.137090 50.852606 14.387667 28.857040 5.485669 -0.000001 0.000001 0.000000 -19.510002 0.612798 6.216527 53.658567 -26.452703 0.330442 -22.098085 -2.587396 12.489651 -14.825921 0.001141 0.020148 0.000000 0.000000 -0.000000 -36.170278 0.721338 -2.210359 47.899509 32.959184 -6.034069 -2.778458 -1.177641 6.787144 -8.690317 -0.388728 -5.563109 0.000000 -0.000001 -0.000000 
-1.849981 90.826576 17.831932 1.402072 31.029082 -3.787794 -0.010815 -2.870545 1.345359 0.015888 -5.871014 2.238746 0.015888 -5.870995 2.238745 -0.964448 3.640674 1.646675 -0.964438 3.640683 1.646680 -0.000000 -0.000001 0.000000 1.703148 -9.258190 -14.432753 3.559586 12.508832 -56.366665 11.675989 -55.196722 -6.843638 -0.000001 0.000001 0.000000 0.454006 15.204290 17.109622 0.887271 -16.093679 51.080847 13.176628 25.139225 6.583320 0.000002 -0.000000 0.000000 -21.264792 -0.603305 7.071609 56.378567 -27.672223 0.418463 -22.824085 -2.822974 13.123101 -15.079640 -0.191802 -0.315920 0.000001 0.000000 -0.000000 -35.203782 -0.387812 -2.876643 49.117683 29.751904 -5.277215 -7.181981 -1.229407 4.034628 -10.234986 -0.192024 -5.714533 0.000000 -0.000001 0.000000 
-2.215798 90.279060 18.692451 1.756962 34.760936 -4.082188 0.061219 -2.548932 1.424745 0.158989 -5.206389 2.386183 0.158989 -5.206399 2.386182 -1.190004 4.271605 1.663110 -1.190010 4.271588 1.663106 -0.000000 -0.000001 -0.000000 1.738313 -9.573345 -14.054384 2.690223 12.019412 -57.287290 11.663211 -52.832958 -6.957603 0.000000 -0.000006 0.000001 0.345799 15.434054 17.667497 0.119649 -15.706688 51.396624 12.027772 20.889652 7.791254 0.000003 -0.000001 0.000000 -22.588257 -1.337198 7.436507 58.270994 -28.054872 0.414413 -23.866296 -3.241794 14.260790 -14.101904 -0.299381 -1.353761 0.000000 -0.000001 -0.000000 -34.679230 -1.566181 -3.893714 50.228149 27.224745 -4.353746 -10.412794 -1.033148 2.225923 -9.338816 -0.692838 -4.252120 0.000000 -0.000000 -0.000000 
-2.573969 89.894547 19.402918 2.225744 37.952554 -4.269561 0.126547 -1.929111 1.492692 0.285646 -3.951321 2.559370 0.285646 -3.951325 2.559369 -1.373100 4.810587 1.559092 -1.373094 4.810565 1.559098 -0.000000 0.000003 -0.000000 1.792435 -9.917171 -13.531104 1.734257 11.537531 -58.651176 11.562859 -49.474373 -7.205169 -0.000001 -0.000002 -0.000002 0.239294 15.606984 18.226513 -0.865472 -15.067411 51.394018 11.064744 16.673665 8.943967 0.000003 0.000001 -0.000000 -23.911949 -1.604384 7.523377 59.645071 -27.539343 0.423497 -24.592335 -3.448824 14.693888 -13.492635 -0.321285 -2.234030 0.000001 -0.000002 -0.000000 -34.833715 -2.635836 -5.128784 51.488285 25.925042 -3.334170 -12.187778 -0.827187 0.876950 -9.044587 -0.908989 -3.489066 0.000000 -0.000001 -0.000000 
